<svg width="12" height="12" viewBox="0 0 12 12" fill="none" xmlns="http://www.w3.org/2000/svg">
<path d="M10.6118 0.4375C11.2719 0.4375 11.8305 0.996094 11.8305 1.65625V10.5938C11.8305 11.2793 11.2719 11.8125 10.6118 11.8125H7.10787V7.95312H8.58053L8.85982 6.125H7.10787V4.95703C7.10787 4.44922 7.36178 3.9668 8.14889 3.9668H8.936V2.41797C8.936 2.41797 8.22506 2.29102 7.51412 2.29102C6.09225 2.29102 5.15279 3.17969 5.15279 4.75391V6.125H3.55318V7.95312H5.15279V11.8125H1.67428C0.98873 11.8125 0.455527 11.2793 0.455527 10.5938V1.65625C0.455527 0.996094 0.98873 0.4375 1.67428 0.4375H10.6118Z" fill="#113026"/>
</svg>
